# Blender v2.81 (sub 16) OBJ File: 'Room.blend'
# www.blender.org
mtllib Room.mtl
o Plane
v -20.000000 0.000000 15.000000
v 20.000000 0.000000 15.000000
v -20.000000 0.000000 -15.000000
v 20.000000 0.000000 -15.000000
v -20.000000 0.000000 14.999999
v 20.000000 0.000000 14.999999
v -20.000000 20.000000 15.000000
v 20.000000 20.000000 15.000000
v 20.000000 0.000000 15.000000
v 19.999998 0.000000 -15.000000
v 20.000002 20.000000 15.000000
v 20.000000 20.000000 -15.000000
v -20.000000 0.000000 15.000000
v -20.000002 0.000000 -15.000000
v -19.999998 20.000000 15.000000
v -20.000000 20.000000 -15.000000
v 20.000000 0.000000 -15.000004
v -20.000000 0.000000 -14.999994
v 20.000000 20.000000 -15.000006
v -20.000000 20.000000 -14.999995
v 19.999998 20.000002 -15.000002
v -20.000002 19.999996 -14.999999
v 20.000002 20.000002 14.999999
v -19.999998 19.999996 15.000002
vt 0.000000 0.000000
vt 1.000000 0.000000
vt 1.000000 1.000000
vt 0.000000 1.000000
vt 0.000000 0.000000
vt 1.000000 0.000000
vt 1.000000 1.000000
vt 0.000000 1.000000
vt 0.000000 0.000000
vt 1.000000 0.000000
vt 1.000000 1.000000
vt 0.000000 1.000000
vt 0.000000 0.000000
vt 1.000000 0.000000
vt 1.000000 1.000000
vt 0.000000 1.000000
vt 0.000000 0.000000
vt 1.000000 0.000000
vt 1.000000 1.000000
vt 0.000000 1.000000
vt 0.000000 0.000000
vt 1.000000 0.000000
vt 1.000000 1.000000
vt 0.000000 1.000000
vn 0.0000 1.0000 0.0000
vn 0.0000 -0.0000 1.0000
vn 1.0000 0.0000 -0.0000
vn -0.0000 -0.0000 -1.0000
usemtl Material.001
s off
f 1/1/1 2/2/1 4/3/1 3/4/1
f 5/5/2 6/6/2 8/7/2 7/8/2
f 9/9/3 10/10/3 12/11/3 11/12/3
f 13/13/3 14/14/3 16/15/3 15/16/3
f 17/17/4 18/18/4 20/19/4 19/20/4
f 21/21/1 22/22/1 24/23/1 23/24/1
