# Blender v2.81 (sub 16) OBJ File: ''
# www.blender.org
mtllib SimpleCrate.mtl
o pCube15_Mesh
v 0.489123 0.108607 -0.394593
v 0.487392 0.112206 0.411767
v 0.489123 0.108607 0.415392
v 0.487392 0.112206 -0.390968
v 0.487392 0.899391 -0.390968
v 0.489123 0.902990 -0.394593
v 0.388995 0.004071 -0.394591
v -0.410611 0.005799 -0.390981
v -0.414211 0.004071 -0.394591
v 0.385395 0.005799 -0.390981
v 0.388995 0.004071 0.415390
v 0.385395 0.005799 0.411780
v 0.500000 0.913820 -0.499060
v 0.500000 0.097777 -0.499060
v 0.496465 0.913820 -0.502595
v 0.496465 0.097777 -0.502595
v 0.500000 -0.003274 -0.499060
v 0.496465 -0.003274 -0.502595
v 0.496465 -0.006809 -0.405581
v 0.500000 -0.003274 -0.405581
v 0.496465 -0.006809 -0.499060
v 0.399922 -0.006809 -0.499060
v 0.399922 -0.003274 -0.502595
v -0.425138 -0.006809 -0.499060
v -0.425138 -0.003274 -0.502595
v 0.496465 -0.006809 0.426381
v 0.500000 -0.003274 0.426381
v 0.389001 0.108603 -0.491722
v -0.414217 0.108603 -0.491722
v 0.385386 0.112203 -0.489987
v -0.410602 0.112203 -0.489987
v 0.389001 0.902994 -0.491722
v 0.385386 0.899394 -0.489987
v 0.399922 0.913820 -0.502595
v 0.399922 0.097777 -0.502595
v 0.396315 0.910228 -0.500860
v 0.396315 0.101369 -0.500860
v -0.421531 0.101369 -0.500860
v -0.425138 0.097777 -0.502595
v 0.500000 0.913818 -0.405581
v 0.498269 0.101366 -0.401969
v 0.500000 0.097779 -0.405581
v 0.498269 0.910231 -0.401969
v 0.498269 0.101366 0.422768
v 0.500000 0.097779 0.426381
v 0.399926 -0.006809 -0.405587
v 0.396321 -0.005081 0.422771
v 0.396321 -0.005081 -0.401972
v 0.399926 -0.006809 0.426386
v -0.421537 -0.005081 -0.401972
v -0.425142 -0.006809 -0.405587
v -0.410611 0.005799 0.411780
v 0.487392 0.899391 0.411767
v 0.500000 -0.003274 0.519859
v 0.500000 0.097777 0.519859
v 0.496465 0.097777 0.523394
v 0.496465 -0.003274 0.523394
v 0.496465 -0.006809 0.519859
v 0.399922 -0.003274 0.523394
v 0.399922 -0.006809 0.519859
v 0.498269 0.910231 0.422768
v 0.489123 0.902990 0.415392
v 0.399922 0.097777 0.523394
v 0.500000 0.913820 0.519859
v 0.500000 0.913818 0.426381
v 0.399922 0.913820 0.523394
v 0.496465 0.913820 0.523394
v 0.389001 0.902994 0.512522
v 0.389001 0.108603 0.512522
v 0.396315 0.910228 0.521659
v 0.396315 0.101369 0.521659
v 0.500000 1.014871 -0.499060
v 0.496465 1.014871 -0.502595
v 0.496465 1.018406 -0.499060
v 0.496465 1.018406 -0.405581
v 0.500000 1.014871 -0.405581
v 0.399922 1.014871 -0.502595
v 0.399922 1.018406 -0.499060
v -0.410602 0.899394 -0.489987
v 0.388995 1.007525 -0.394591
v 0.396321 1.016679 0.422771
v 0.396321 1.016679 -0.401972
v 0.388995 1.007525 0.415390
v 0.399926 1.018406 -0.405587
v 0.500000 1.014871 0.426381
v 0.496465 1.018406 0.426381
v 0.399926 1.018406 0.426386
v -0.410611 1.005798 0.411780
v -0.414211 1.007525 0.415390
v 0.385395 1.005798 0.411780
v 0.385395 1.005798 -0.390981
v 0.496465 1.014871 0.523394
v 0.500000 1.014871 0.519859
v 0.496465 1.018406 0.519859
v 0.399922 1.014871 0.523394
v 0.399922 1.018406 0.519859
v -0.425138 1.018406 0.519859
v -0.425138 1.014871 0.523394
v -0.414217 0.902994 0.512522
v 0.385386 0.899394 0.510786
v -0.410602 0.899394 0.510786
v 0.385386 0.112203 0.510786
v -0.421531 0.910228 0.521659
v -0.425138 0.913820 0.523394
v -0.421537 1.016679 0.422771
v -0.425142 1.018406 0.426386
v -0.525216 -0.003274 -0.499060
v -0.525216 0.097777 -0.499060
v -0.521681 0.097777 -0.502595
v -0.521681 -0.003274 -0.502595
v -0.521681 -0.006809 -0.405581
v -0.521681 -0.006809 -0.499060
v -0.525216 -0.003274 -0.405581
v -0.523485 0.101366 -0.401969
v -0.523485 0.101366 0.422768
v -0.514339 0.108607 -0.394593
v -0.514339 0.108607 0.415392
v -0.421537 -0.005081 0.422771
v -0.414211 0.004071 0.415390
v -0.523485 0.910231 -0.401969
v -0.514339 0.902990 -0.394593
v -0.525216 0.097779 -0.405581
v -0.525216 -0.003274 0.426381
v -0.525216 0.097779 0.426381
v -0.521681 -0.006809 0.426381
v -0.425142 -0.006809 0.426386
v -0.525216 0.913820 -0.499060
v -0.525216 0.913818 -0.405581
v -0.425138 0.913820 -0.502595
v -0.521681 0.913820 -0.502595
v -0.414217 0.902994 -0.491722
v -0.421531 0.910228 -0.500860
v -0.512608 0.112206 0.411767
v -0.512608 0.112206 -0.390968
v -0.512608 0.899391 0.411767
v -0.514339 0.902990 0.415392
v -0.525216 0.913820 0.519859
v -0.525216 0.097777 0.519859
v -0.521681 0.913820 0.523394
v -0.521681 0.097777 0.523394
v -0.525216 -0.003274 0.519859
v -0.521681 -0.003274 0.523394
v -0.521681 -0.006809 0.519859
v -0.425138 -0.006809 0.519859
v -0.425138 -0.003274 0.523394
v -0.410602 0.112203 0.510786
v -0.414217 0.108603 0.512522
v -0.425138 0.097777 0.523394
v -0.421531 0.101369 0.521659
v -0.525216 0.913818 0.426381
v -0.523485 0.910231 0.422768
v -0.512608 0.899391 -0.390968
v -0.414211 1.007525 -0.394591
v -0.410611 1.005798 -0.390981
v -0.521681 1.014871 -0.502595
v -0.525216 1.014871 -0.499060
v -0.525216 1.014871 -0.405581
v -0.521681 1.018406 -0.499060
v -0.521681 1.018406 -0.405581
v -0.425138 1.014871 -0.502595
v -0.425138 1.018406 -0.499060
v -0.525216 1.014871 0.426381
v -0.521681 1.018406 0.426381
v -0.425142 1.018406 -0.405587
v -0.421537 1.016679 -0.401972
v -0.525216 1.014871 0.519859
v -0.521681 1.014871 0.523394
v -0.521681 1.018406 0.519859
vt 0.294546 0.223205
vt 0.489344 0.222476
vt 0.490281 0.223410
vt 0.295485 0.222273
vt 0.295678 0.032188
vt 0.294741 0.031254
vt 0.294496 0.278896
vt 0.295216 0.472054
vt 0.294281 0.472986
vt 0.295430 0.279830
vt 0.490216 0.279101
vt 0.489281 0.280033
vt 0.268759 0.027864
vt 0.268544 0.226577
vt 0.267552 0.027863
vt 0.267337 0.226576
vt 0.268766 0.251100
vt 0.267587 0.251575
vt 0.291188 0.252184
vt 0.291189 0.250977
vt 0.268753 0.252070
vt 0.268503 0.275454
vt 0.267295 0.275451
vt 0.268287 0.476332
vt 0.267080 0.476331
vt 0.493579 0.252397
vt 0.493581 0.251191
vt 0.046232 0.528470
vt 0.240320 0.528645
vt 0.047167 0.529404
vt 0.239383 0.529577
vt 0.046054 0.720439
vt 0.046991 0.719506
vt 0.042652 0.723831
vt 0.042830 0.525071
vt 0.043588 0.722899
vt 0.043764 0.526004
vt 0.242791 0.526190
vt 0.243728 0.525258
vt 0.291329 0.027851
vt 0.292071 0.225670
vt 0.291134 0.226601
vt 0.292264 0.028783
vt 0.492751 0.225874
vt 0.493686 0.226806
vt 0.291085 0.275484
vt 0.492697 0.276624
vt 0.292021 0.276420
vt 0.493634 0.275690
vt 0.291793 0.475457
vt 0.290855 0.476391
vt 0.019557 0.500662
vt 0.042890 0.500676
vt 0.019523 0.525085
vt 0.243716 0.500860
vt 0.489088 0.472260
vt 0.489544 0.032385
vt 0.516005 0.251355
vt 0.516276 0.226830
vt 0.517483 0.226848
vt 0.517182 0.251833
vt 0.516015 0.252326
vt 0.517425 0.275707
vt 0.516216 0.275708
vt 0.492965 0.028994
vt 0.490483 0.031453
vt 0.741374 0.525993
vt 0.764717 0.501651
vt 0.764680 0.526075
vt 0.741384 0.501598
vt 0.516471 0.028123
vt 0.493902 0.028063
vt 0.740976 0.724767
vt 0.764286 0.724779
vt 0.737585 0.721364
vt 0.737962 0.529382
vt 0.740043 0.723832
vt 0.740436 0.526924
vt 0.268803 0.003448
vt 0.267596 0.003446
vt 0.267886 0.997197
vt 0.290477 0.997220
vt 0.290476 0.998427
vt 0.267885 0.998404
vt 0.019336 0.749407
vt 0.042670 0.748226
vt 0.042669 0.749434
vt 0.019337 0.748199
vt 0.268201 0.002401
vt 0.239201 0.719691
vt 0.293873 0.970503
vt 0.492083 0.973124
vt 0.291393 0.972976
vt 0.489606 0.970642
vt 0.019342 0.723776
vt 0.290455 0.973910
vt 0.267887 0.973864
vt 0.291389 0.003455
vt 0.493892 0.003664
vt 0.492963 0.997365
vt 0.493019 0.974060
vt 0.488821 0.777461
vt 0.489757 0.776529
vt 0.488673 0.969708
vt 0.294808 0.969571
vt 0.517678 0.028124
vt 0.517686 0.003706
vt 0.516479 0.003705
vt 0.515553 0.998585
vt 0.492962 0.998573
vt 0.515554 0.997378
vt 0.764216 0.750412
vt 0.740884 0.749165
vt 0.764218 0.749204
vt 0.740882 0.750372
vt 0.540038 0.749969
vt 0.540040 0.748762
vt 0.517083 0.002660
vt 0.543519 0.720964
vt 0.736651 0.720428
vt 0.544457 0.720032
vt 0.737024 0.530313
vt 0.541052 0.723415
vt 0.540115 0.724346
vt 0.492244 0.774050
vt 0.493182 0.773116
vt 0.515761 0.773171
vt 0.515588 0.974046
vt 0.268272 0.500889
vt 0.268240 0.525315
vt 0.267033 0.525314
vt 0.267064 0.500888
vt 0.290870 0.499699
vt 0.268274 0.499681
vt 0.290868 0.500906
vt 0.267066 0.499680
vt 0.267669 0.499843
vt 0.291745 0.526233
vt 0.492439 0.526450
vt 0.294215 0.528703
vt 0.489962 0.528908
vt 0.492505 0.475676
vt 0.490022 0.473193
vt 0.291545 0.723136
vt 0.294026 0.720670
vt 0.290810 0.525301
vt 0.493374 0.501122
vt 0.493376 0.525520
vt 0.493375 0.499915
vt 0.493441 0.476612
vt 0.268045 0.724007
vt 0.290609 0.724067
vt 0.243531 0.724017
vt 0.266838 0.724006
vt 0.240136 0.720625
vt 0.242597 0.723084
vt 0.489023 0.529840
vt 0.295152 0.529637
vt 0.488758 0.719894
vt 0.489694 0.720828
vt 0.515628 0.724209
vt 0.515950 0.525588
vt 0.516833 0.724213
vt 0.517157 0.525590
vt 0.515976 0.501160
vt 0.517185 0.501162
vt 0.515977 0.499951
vt 0.516009 0.476600
vt 0.517184 0.499953
vt 0.517216 0.476601
vt 0.516583 0.500116
vt 0.544798 0.529929
vt 0.543863 0.528994
vt 0.540464 0.525598
vt 0.541398 0.526533
vt 0.493104 0.724223
vt 0.492169 0.723291
vt 0.540544 0.501200
vt 0.294965 0.719738
vt 0.293996 0.776396
vt 0.294930 0.777330
vt 0.266825 0.748411
vt 0.268024 0.748444
vt 0.290626 0.748468
vt 0.268024 0.749653
vt 0.290625 0.749675
vt 0.266860 0.749608
vt 0.243475 0.748417
vt 0.243474 0.749624
vt 0.493120 0.748617
vt 0.493125 0.749825
vt 0.290576 0.772985
vt 0.291512 0.773920
vt 0.268009 0.773002
vt 0.515574 0.748535
vt 0.516561 0.748534
vt 0.516048 0.749711
vn 0.7819 0.4460 0.4355
vn 1.0000 0.0044 -0.0019
vn 0.7819 0.4460 -0.4355
vn 1.0000 0.0032 0.0031
vn 1.0000 -0.0032 0.0031
vn 0.7819 -0.4460 0.4355
vn -0.4419 -0.7832 0.4374
vn 0.0036 -1.0000 0.0026
vn 0.4418 -0.7833 0.4373
vn -0.0031 -1.0000 0.0031
vn -0.4418 -0.7833 -0.4373
vn -0.0031 -1.0000 -0.0031
vn 0.9993 0.0000 -0.0364
vn 0.0353 -0.0002 -0.9994
vn 0.0353 -0.0000 -0.9994
vn 0.9988 -0.0330 -0.0356
vn 0.0345 -0.0330 -0.9989
vn 0.0353 -0.9994 -0.0000
vn 0.9994 -0.0338 0.0000
vn 0.0344 -0.9988 -0.0355
vn 0.0000 -0.9993 -0.0364
vn -0.0000 -0.0338 -0.9994
vn -0.4386 0.4447 -0.7809
vn 0.4386 0.4447 -0.7809
vn -0.0025 0.0039 -1.0000
vn 0.0032 0.0032 -1.0000
vn -0.4386 -0.4447 -0.7809
vn -0.0024 -0.0039 -1.0000
vn -0.0043 -0.0044 -1.0000
vn -0.0043 0.0043 -1.0000
vn -0.3611 -0.3635 -0.8588
vn -0.3611 0.3636 -0.8587
vn 0.3611 0.3635 -0.8588
vn 0.0043 0.0043 -1.0000
vn 1.0000 -0.0044 0.0044
vn 0.8593 0.3639 0.3594
vn 1.0000 0.0044 0.0044
vn 0.8593 -0.3639 0.3594
vn 0.8593 0.3639 -0.3594
vn 1.0000 0.0044 -0.0044
vn -0.0045 -1.0000 0.0044
vn -0.3613 -0.8604 -0.3594
vn -0.3613 -0.8604 0.3593
vn -0.0045 -1.0000 -0.0045
vn 0.3613 -0.8604 0.3594
vn 0.0045 -1.0000 0.0045
vn 0.0032 -1.0000 -0.0032
vn 1.0000 -0.0032 -0.0032
vn 0.9988 -0.0330 0.0356
vn 0.9993 0.0000 0.0364
vn 0.0353 0.0000 0.9994
vn 0.0345 -0.0330 0.9989
vn 0.0345 -0.9988 0.0356
vn -0.0002 -0.0338 0.9994
vn 0.0000 -0.9993 0.0364
vn 0.8593 -0.3639 -0.3594
vn 0.7819 -0.4460 -0.4355
vn -0.0043 0.0043 1.0000
vn 1.0000 -0.0044 -0.0044
vn -0.0043 -0.0043 1.0000
vn -0.4386 -0.4447 0.7809
vn -0.4386 0.4447 0.7809
vn -0.3611 -0.3635 0.8588
vn -0.3611 0.3635 0.8588
vn 0.9988 0.0329 -0.0356
vn 0.0345 0.0330 -0.9989
vn 0.0344 0.9988 -0.0356
vn 0.0353 0.9994 0.0000
vn 0.9994 0.0338 -0.0000
vn -0.0000 0.0338 -0.9994
vn -0.0000 0.9993 -0.0364
vn 0.0032 -0.0032 -1.0000
vn -0.4419 0.7833 0.4373
vn -0.3614 0.8604 -0.3594
vn -0.3613 0.8604 0.3593
vn -0.4419 0.7832 -0.4374
vn -0.0045 1.0000 0.0045
vn -0.0045 1.0000 -0.0045
vn 0.0036 1.0000 -0.0026
vn 0.4419 0.7832 -0.4374
vn -0.0031 1.0000 -0.0031
vn -0.0032 1.0000 0.0031
vn 0.0345 0.0330 0.9989
vn 0.9988 0.0330 0.0356
vn 0.0345 0.9988 0.0355
vn -0.0000 0.0338 0.9994
vn -0.0000 0.9993 0.0364
vn 0.4386 -0.4447 0.7809
vn -0.0024 -0.0039 1.0000
vn 0.0032 -0.0032 1.0000
vn -0.0025 0.0039 1.0000
vn 0.3611 -0.3635 0.8588
vn 0.0043 -0.0043 1.0000
vn 0.3613 0.8604 -0.3593
vn 0.0045 1.0000 -0.0045
vn -0.9988 -0.0330 -0.0356
vn -0.9993 0.0000 -0.0364
vn -0.0353 0.0000 -0.9994
vn -0.0345 -0.0330 -0.9989
vn -0.0353 -0.9994 -0.0000
vn -0.0344 -0.9988 -0.0356
vn -0.9994 -0.0338 0.0000
vn -0.8593 0.3639 0.3594
vn -0.8593 0.3639 -0.3594
vn -0.7819 0.4460 0.4355
vn -0.7819 0.4460 -0.4355
vn 0.3613 -0.8604 -0.3593
vn 0.4419 -0.7832 -0.4374
vn -0.8593 -0.3639 0.3594
vn -0.7819 -0.4460 0.4355
vn -1.0000 0.0044 0.0044
vn -1.0000 0.0044 -0.0044
vn 0.0045 -1.0000 -0.0045
vn -1.0000 -0.0044 0.0044
vn 0.0043 -0.0043 -1.0000
vn 0.4386 -0.4447 -0.7809
vn 0.3611 -0.3635 -0.8588
vn -1.0000 0.0032 -0.0032
vn -1.0000 0.0044 0.0019
vn -1.0000 -0.0032 -0.0031
vn -0.7819 -0.4460 -0.4355
vn -0.9993 0.0000 0.0364
vn -0.0353 -0.0002 0.9994
vn -0.0353 -0.0000 0.9994
vn -0.9988 -0.0330 0.0356
vn -0.0345 -0.0330 0.9989
vn -0.0345 -0.9988 0.0356
vn 0.0000 -0.0338 0.9994
vn 0.0024 0.0039 1.0000
vn 0.4386 0.4447 0.7809
vn 0.0043 0.0044 1.0000
vn 0.3611 0.3635 0.8588
vn -1.0000 -0.0044 -0.0044
vn -0.8593 -0.3639 -0.3594
vn -1.0000 -0.0032 0.0031
vn 0.4419 0.7832 0.4374
vn 0.0032 1.0000 0.0031
vn -0.0345 0.0330 -0.9989
vn -0.9988 0.0330 -0.0356
vn -0.9994 0.0338 -0.0000
vn -0.0345 0.9988 -0.0356
vn -0.0353 0.9994 0.0000
vn 0.0045 1.0000 0.0045
vn 0.3613 0.8604 0.3594
vn -0.9988 0.0329 0.0356
vn -0.0345 0.0330 0.9989
vn -0.0344 0.9988 0.0356
usemtl Crate_Base
s 1
f 1/1/1 2/2/2 3/3/3
f 2/2/2 1/1/1 4/4/4
f 1/1/1 5/5/5 4/4/4
f 5/5/5 1/1/1 6/6/6
f 7/7/7 8/8/8 9/9/9
f 8/8/8 7/7/7 10/10/10
f 11/11/11 10/10/10 7/7/7
f 10/10/10 11/11/11 12/12/12
f 13/13/13 14/14/13 15/15/14
f 15/15/14 14/14/13 16/16/15
f 14/14/13 17/17/16 16/16/15
f 16/16/15 17/17/16 18/18/17
f 19/19/18 17/17/16 20/20/19
f 17/17/16 19/19/18 21/21/20
f 22/22/21 18/18/17 21/21/20
f 18/18/17 22/22/21 23/23/22
f 24/24/21 23/23/22 22/22/21
f 23/23/22 24/24/21 25/25/22
f 26/26/18 19/19/18 27/27/19
f 27/27/19 19/19/18 20/20/19
f 21/21/20 18/18/17 17/17/16
f 28/28/23 29/29/24 30/30/25
f 30/30/25 29/29/24 31/31/26
f 32/32/27 28/28/23 33/33/28
f 33/33/28 28/28/23 30/30/25
f 34/34/29 35/35/30 36/36/31
f 36/36/31 35/35/30 37/37/32
f 35/35/30 38/38/33 37/37/32
f 38/38/33 35/35/30 39/39/34
f 40/40/35 41/41/36 42/42/37
f 41/41/36 40/40/35 43/43/38
f 42/42/37 44/44/39 45/45/40
f 44/44/39 42/42/37 41/41/36
f 46/46/41 47/47/42 48/48/43
f 47/47/42 46/46/41 49/49/44
f 46/46/41 50/50/45 51/51/46
f 50/50/45 46/46/41 48/48/43
f 48/48/43 9/9/9 50/50/45
f 9/9/9 48/48/43 7/7/7
f 35/35/30 18/52/17 23/53/22
f 18/52/17 35/35/30 16/54/15
f 23/53/22 25/55/22 35/35/30
f 39/39/34 35/35/30 25/55/22
f 46/46/41 24/24/21 22/22/21
f 24/24/21 46/46/41 51/51/46
f 46/46/41 21/21/20 19/19/18
f 21/21/20 46/46/41 22/22/21
f 14/14/13 20/20/19 17/17/16
f 20/20/19 14/14/13 42/42/37
f 37/37/32 38/38/33 28/28/23
f 28/28/23 38/38/33 29/29/24
f 12/12/12 52/56/47 8/8/8
f 12/12/12 8/8/8 10/10/10
f 5/5/5 53/57/48 2/2/2
f 5/5/5 2/2/2 4/4/4
f 54/58/49 55/59/50 56/60/51
f 56/60/51 57/61/52 54/58/49
f 54/58/49 26/26/18 27/27/19
f 26/26/18 54/58/49 58/62/53
f 57/61/52 59/63/54 60/64/55
f 57/61/52 60/64/55 58/62/53
f 58/62/53 54/58/49 57/61/52
f 44/44/39 41/41/36 1/1/1
f 44/44/39 1/1/1 3/3/3
f 47/47/42 7/7/7 48/48/43
f 7/7/7 47/47/42 11/11/11
f 61/65/56 44/44/39 62/66/57
f 62/66/57 44/44/39 3/3/3
f 63/67/58 57/68/52 56/69/51
f 57/68/52 63/67/58 59/70/54
f 58/62/53 49/49/44 26/26/18
f 49/49/44 58/62/53 60/64/55
f 55/59/50 27/27/19 45/45/40
f 27/27/19 55/59/50 54/58/49
f 42/42/37 45/45/40 27/27/19
f 42/42/37 27/27/19 20/20/19
f 26/26/18 46/46/41 19/19/18
f 46/46/41 26/26/18 49/49/44
f 64/71/50 45/45/40 65/72/59
f 45/45/40 64/71/50 55/59/50
f 66/73/60 63/67/58 67/74/51
f 67/74/51 63/67/58 56/69/51
f 68/75/61 69/76/62 70/77/63
f 70/77/63 69/76/62 71/78/64
f 72/79/65 15/15/14 73/80/66
f 15/15/14 72/79/65 13/13/13
f 74/81/67 75/82/68 76/83/69
f 74/81/67 76/83/69 72/84/65
f 74/85/67 77/86/70 78/87/71
f 77/86/70 74/85/67 73/88/66
f 74/89/67 72/79/65 73/80/66
f 79/90/72 33/33/28 31/31/26
f 33/33/28 30/30/25 31/31/26
f 62/66/57 6/6/6 61/65/56
f 61/65/56 6/6/6 43/43/38
f 80/91/73 81/92/74 82/93/75
f 81/92/74 80/91/73 83/94/76
f 6/6/6 41/41/36 43/43/38
f 41/41/36 6/6/6 1/1/1
f 73/88/66 34/34/29 77/86/70
f 34/34/29 73/88/66 15/95/14
f 74/81/67 84/96/77 75/82/68
f 84/96/77 74/81/67 78/97/71
f 76/98/69 13/13/13 72/79/65
f 13/13/13 76/98/69 40/40/35
f 85/99/69 40/40/35 76/98/69
f 40/40/35 85/99/69 65/72/59
f 84/96/77 86/100/68 75/82/68
f 86/100/68 84/96/77 87/101/78
f 13/13/13 42/42/37 14/14/13
f 42/42/37 13/13/13 40/40/35
f 15/95/14 35/35/30 34/34/29
f 35/35/30 15/95/14 16/54/15
f 36/36/31 28/28/23 32/32/27
f 36/36/31 37/37/32 28/28/23
f 53/57/48 6/6/6 62/66/57
f 6/6/6 53/57/48 5/5/5
f 53/57/48 3/3/3 2/2/2
f 3/3/3 53/57/48 62/66/57
f 83/94/76 88/102/79 89/103/80
f 88/102/79 83/94/76 90/104/81
f 83/94/76 80/91/73 91/105/82
f 83/94/76 91/105/82 90/104/81
f 67/106/51 55/59/50 64/71/50
f 55/59/50 67/106/51 56/60/51
f 92/107/83 67/106/51 93/108/84
f 93/108/84 67/106/51 64/71/50
f 93/109/84 85/110/69 94/111/85
f 86/100/68 94/111/85 85/110/69
f 94/112/85 95/113/86 92/114/83
f 95/113/86 94/112/85 96/115/87
f 97/116/87 95/113/86 96/115/87
f 95/113/86 97/116/87 98/117/86
f 85/110/69 76/83/69 75/82/68
f 75/82/68 86/100/68 85/110/69
f 94/118/85 92/107/83 93/108/84
f 68/75/61 99/119/88 100/120/89
f 100/120/89 99/119/88 101/121/90
f 69/76/62 68/75/61 100/120/89
f 69/76/62 100/120/89 102/122/91
f 63/67/58 66/73/60 70/77/63
f 63/67/58 70/77/63 71/78/64
f 66/73/60 103/123/92 70/77/63
f 103/123/92 66/73/60 104/124/93
f 65/72/59 44/44/39 61/65/56
f 65/72/59 45/45/40 44/44/39
f 40/40/35 65/72/59 61/65/56
f 40/40/35 61/65/56 43/43/38
f 84/96/77 81/92/74 87/101/78
f 81/92/74 84/96/77 82/93/75
f 87/101/78 105/125/94 106/126/95
f 105/125/94 87/101/78 81/92/74
f 89/103/80 81/92/74 83/94/76
f 105/125/94 81/92/74 89/103/80
f 92/114/83 66/73/60 67/74/51
f 66/73/60 92/114/83 95/113/86
f 98/117/86 66/73/60 95/113/86
f 66/73/60 98/117/86 104/124/93
f 87/101/78 97/127/87 96/128/87
f 97/127/87 87/101/78 106/126/95
f 87/101/78 94/111/85 86/100/68
f 94/111/85 87/101/78 96/128/87
f 85/99/69 64/71/50 65/72/59
f 64/71/50 85/99/69 93/108/84
f 70/77/63 103/123/92 68/75/61
f 68/75/61 103/123/92 99/119/88
f 107/129/96 108/130/97 109/131/98
f 109/131/98 110/132/99 107/129/96
f 111/133/100 107/129/96 112/134/101
f 107/129/96 111/133/100 113/135/102
f 24/24/21 112/134/101 110/136/99
f 24/24/21 110/136/99 25/25/22
f 112/137/101 107/129/96 110/132/99
f 114/138/103 115/139/104 116/140/105
f 116/140/105 115/139/104 117/141/106
f 118/142/107 9/9/9 119/143/108
f 9/9/9 118/142/107 50/50/45
f 120/144/109 114/138/103 121/145/110
f 121/145/110 114/138/103 116/140/105
f 39/39/34 110/132/99 109/131/98
f 110/132/99 39/39/34 25/55/22
f 51/51/46 112/134/101 24/24/21
f 112/134/101 51/51/46 111/133/100
f 108/130/97 113/135/102 122/146/111
f 113/135/102 108/130/97 107/129/96
f 113/135/102 123/147/102 122/146/111
f 124/148/112 122/146/111 123/147/102
f 125/149/100 51/51/46 126/150/113
f 51/51/46 125/149/100 111/133/100
f 127/151/97 122/146/111 128/152/114
f 122/146/111 127/151/97 108/130/97
f 129/153/115 39/39/34 130/154/98
f 130/154/98 39/39/34 109/131/98
f 131/155/116 29/29/24 132/156/117
f 132/156/117 29/29/24 38/38/33
f 116/140/105 117/141/106 133/157/118
f 116/140/105 133/157/118 134/158/119
f 117/141/106 135/159/120 133/157/118
f 135/159/120 117/141/106 136/160/121
f 11/11/11 119/143/108 52/56/47
f 11/11/11 52/56/47 12/12/12
f 119/143/108 8/8/8 52/56/47
f 119/143/108 9/9/9 8/8/8
f 137/161/122 138/162/122 139/163/123
f 139/163/123 138/162/122 140/164/124
f 141/165/125 140/164/124 138/162/122
f 140/164/124 141/165/125 142/166/126
f 141/165/125 125/149/100 143/167/127
f 125/149/100 141/165/125 123/147/102
f 143/167/127 144/168/55 142/169/126
f 145/170/128 142/169/126 144/168/55
f 59/63/54 145/170/128 144/168/55
f 59/63/54 144/168/55 60/64/55
f 123/147/102 111/133/100 125/149/100
f 111/133/100 123/147/102 113/135/102
f 143/171/127 142/166/126 141/165/125
f 102/122/91 146/172/129 147/173/130
f 102/122/91 147/173/130 69/76/62
f 99/119/88 147/173/130 101/121/90
f 101/121/90 147/173/130 146/172/129
f 104/124/93 148/174/131 103/123/92
f 103/123/92 148/174/131 149/175/132
f 149/175/132 63/67/58 71/78/64
f 63/67/58 149/175/132 148/174/131
f 150/176/133 115/139/104 124/148/112
f 115/139/104 150/176/133 151/177/134
f 122/146/111 124/148/112 115/139/104
f 122/146/111 115/139/104 114/138/103
f 118/142/107 51/51/46 50/50/45
f 51/51/46 118/142/107 126/150/113
f 118/142/107 49/49/44 126/150/113
f 49/49/44 118/142/107 47/47/42
f 47/47/42 118/142/107 119/143/108
f 47/47/42 119/143/108 11/11/11
f 148/174/131 142/166/126 145/178/128
f 142/166/126 148/174/131 140/164/124
f 145/178/128 63/67/58 148/174/131
f 63/67/58 145/178/128 59/70/54
f 144/168/55 49/49/44 60/64/55
f 49/49/44 144/168/55 126/150/113
f 143/167/127 126/150/113 144/168/55
f 126/150/113 143/167/127 125/149/100
f 138/162/122 123/147/102 141/165/125
f 123/147/102 138/162/122 124/148/112
f 69/76/62 147/173/130 149/175/132
f 69/76/62 149/175/132 71/78/64
f 135/159/120 121/145/110 152/179/135
f 136/160/121 121/145/110 135/159/120
f 152/179/135 116/140/105 134/158/119
f 116/140/105 152/179/135 121/145/110
f 80/91/73 153/180/136 154/181/137
f 80/91/73 154/181/137 91/105/82
f 153/180/136 89/103/80 154/181/137
f 154/181/137 89/103/80 88/102/79
f 130/154/98 108/130/97 127/151/97
f 108/130/97 130/154/98 109/131/98
f 155/182/138 130/154/98 156/183/139
f 156/183/139 130/154/98 127/151/97
f 156/183/139 157/184/140 158/185/141
f 159/186/142 158/185/141 157/184/140
f 158/187/141 160/188/70 155/182/138
f 160/188/70 158/187/141 161/189/71
f 77/86/70 160/188/70 161/189/71
f 77/86/70 161/189/71 78/87/71
f 157/184/140 162/190/140 159/186/142
f 159/186/142 162/190/140 163/191/142
f 158/187/141 155/182/138 156/183/139
f 131/155/116 32/32/27 33/33/28
f 131/155/116 33/33/28 79/90/72
f 29/29/24 131/155/116 79/90/72
f 29/29/24 79/90/72 31/31/26
f 39/39/34 129/153/115 132/156/117
f 39/39/34 132/156/117 38/38/33
f 34/34/29 132/156/117 129/153/115
f 132/156/117 34/34/29 36/36/31
f 128/152/114 114/138/103 120/144/109
f 128/152/114 122/146/111 114/138/103
f 151/177/134 128/152/114 120/144/109
f 150/176/133 128/152/114 151/177/134
f 164/192/143 105/125/94 165/193/144
f 105/125/94 164/192/143 106/126/95
f 84/96/77 164/192/143 165/193/144
f 84/96/77 165/193/144 82/93/75
f 82/93/75 165/193/144 153/180/136
f 82/93/75 153/180/136 80/91/73
f 155/182/138 129/153/115 130/154/98
f 129/153/115 155/182/138 160/188/70
f 160/188/70 77/86/70 34/34/29
f 160/188/70 34/34/29 129/153/115
f 161/194/71 84/96/77 78/97/71
f 84/96/77 161/194/71 164/192/143
f 158/185/141 164/192/143 161/194/71
f 164/192/143 158/185/141 159/186/142
f 157/184/140 127/151/97 128/152/114
f 127/151/97 157/184/140 156/183/139
f 32/32/27 131/155/116 132/156/117
f 32/32/27 132/156/117 36/36/31
f 91/105/82 154/181/137 90/104/81
f 154/181/137 88/102/79 90/104/81
f 152/179/135 133/157/118 135/159/120
f 133/157/118 152/179/135 134/158/119
f 166/195/145 139/163/123 167/196/146
f 139/163/123 166/195/145 137/161/122
f 168/197/147 163/191/142 162/190/140
f 168/197/147 162/190/140 166/195/145
f 168/197/147 98/117/86 97/116/87
f 98/117/86 168/197/147 167/196/146
f 168/197/147 166/195/145 167/196/146
f 101/121/90 146/172/129 100/120/89
f 100/120/89 146/172/129 102/122/91
f 151/177/134 121/145/110 136/160/121
f 151/177/134 120/144/109 121/145/110
f 105/125/94 153/180/136 165/193/144
f 153/180/136 105/125/94 89/103/80
f 136/160/121 115/139/104 151/177/134
f 115/139/104 136/160/121 117/141/106
f 167/196/146 104/124/93 98/117/86
f 104/124/93 167/196/146 139/163/123
f 106/126/95 168/197/147 97/127/87
f 168/197/147 106/126/95 163/191/142
f 162/190/140 137/161/122 166/195/145
f 137/161/122 162/190/140 150/176/133
f 162/190/140 157/184/140 128/152/114
f 162/190/140 128/152/114 150/176/133
f 164/192/143 163/191/142 106/126/95
f 163/191/142 164/192/143 159/186/142
f 137/161/122 124/148/112 138/162/122
f 124/148/112 137/161/122 150/176/133
f 139/163/123 148/174/131 104/124/93
f 148/174/131 139/163/123 140/164/124
f 103/123/92 147/173/130 99/119/88
f 103/123/92 149/175/132 147/173/130
